<svg width="278" height="58" viewBox="0 0 278 58" fill="none" xmlns="http://www.w3.org/2000/svg">
<g clip-path="url(#clip0_333_4641)">
<path d="M24.4196 45.5077C22.8603 53.5385 18.0711 57.5631 10.0518 57.5817C3.35063 57.5817 0 54.7654 0 49.1327C0 48.0359 0.129941 46.8276 0.389824 45.5077L6.8776 12.0462C8.4369 4.01538 13.2169 0 21.2175 0C27.9374 0 31.2973 2.81635 31.2973 8.44904C31.2973 9.54582 31.1674 10.7449 30.9075 12.0462L29.376 19.9654H20.1038L21.6352 12.0462C22.0436 9.96413 21.3382 8.91378 19.519 8.89519H19.4634C17.6627 8.89519 16.5582 9.94548 16.1498 12.0462L9.6621 45.5077C9.25366 47.6084 9.95908 48.6586 11.7783 48.6586C13.6159 48.6586 14.7391 47.6084 15.1474 45.5077L16.6789 37.5885H25.9511L24.4196 45.5077Z" fill="white"/>
<path d="M51.4733 45.5077C49.914 53.5385 45.1248 57.5631 37.1056 57.5817C30.4043 57.5817 27.0537 54.7654 27.0537 49.1327C27.0537 48.0359 27.1836 46.8276 27.4435 45.5077L33.9313 12.0462C35.4906 4.01538 40.2706 0 48.2713 0C54.9911 0 58.351 2.81635 58.351 8.44904C58.351 9.54582 58.2211 10.7449 57.9612 12.0462L51.4733 45.5077ZM48.6889 12.0462C49.0973 9.96413 48.3919 8.91378 46.5727 8.89519H46.517C44.7164 8.89519 43.6119 9.94548 43.2036 12.0462L36.7157 45.5077C36.3074 47.6084 37.0128 48.6586 38.8319 48.6586C40.6697 48.6586 41.7928 47.6084 42.2011 45.5077L48.6889 12.0462Z" fill="white"/>
<path d="M63.9921 0.86438H76.8285C83.01 0.882969 86.1007 3.64354 86.1007 9.14611C86.1007 10.2801 85.9615 11.5442 85.6831 12.9384L79.5294 44.6432C77.9701 52.6554 73.3016 56.6708 65.5236 56.6893H53.1606L63.9921 0.86438ZM71.538 9.75957L64.1592 47.7942H66.9158C68.7351 47.7942 69.8488 46.7439 70.2572 44.6432L76.4108 12.9384C76.8192 10.8192 76.1138 9.75957 74.2946 9.75957H71.538Z" fill="white"/>
<path d="M91.8816 0.86438H113.712L111.985 9.75957H99.4277L96.6147 24.3153H107.418L105.665 33.2384H94.8611L92.0482 47.7942H104.606L102.88 56.6893H81.0498L91.8816 0.86438Z" fill="white"/>
<path d="M116.707 0.86438H128.875C135.057 0.882969 138.148 3.64354 138.148 9.14611C138.148 10.2801 138.008 11.5442 137.73 12.9384L136.143 21.1644C135.16 26.2208 132.495 29.4926 128.152 30.9798L132.105 56.6893H121.998L120.299 32.6807H119.798L115.148 56.6893H105.876L116.707 0.86438ZM124.253 9.75957L121.441 24.3153H122.555C123.558 24.3153 124.216 24.2596 124.531 24.148C125.794 23.6833 126.574 22.6888 126.87 21.1644L128.458 12.9384C128.866 10.8192 128.161 9.75957 126.342 9.75957H124.253Z" fill="white"/>
<path d="M144.541 0.86438H153.813L149.274 24.3153H154.76L159.298 0.86438H168.571L157.739 56.6893H148.467L153.006 33.2384H147.52L142.982 56.6893H133.709L144.541 0.86438Z" fill="white"/>
<path d="M187.801 45.5077C186.241 53.5385 181.452 57.5631 173.433 57.5817C166.732 57.5817 163.381 54.7654 163.381 49.1327C163.381 48.0359 163.511 46.8276 163.771 45.5077L170.258 12.0462C171.818 4.01538 176.598 0 184.598 0C191.319 0 194.679 2.81635 194.679 8.44904C194.679 9.54582 194.549 10.7449 194.288 12.0462L187.801 45.5077ZM185.016 12.0462C185.424 9.96413 184.719 8.91378 182.9 8.89519H182.844C181.043 8.89519 179.939 9.94548 179.531 12.0462L173.043 45.5077C172.635 47.6084 173.34 48.6586 175.159 48.6586C176.997 48.6586 178.12 47.6084 178.529 45.5077L185.016 12.0462Z" fill="white"/>
<path d="M215.411 45.5076C213.851 53.5384 209.062 57.5631 201.043 57.5816C194.341 57.5816 190.991 54.7653 190.991 49.1326C190.991 48.0358 191.121 46.8275 191.381 45.5076L200.04 0.86438H209.313L200.653 45.5076C200.245 47.6083 200.95 48.6586 202.77 48.6586C204.607 48.6586 205.731 47.6083 206.139 45.5076L214.799 0.86438H224.071L215.411 45.5076Z" fill="white"/>
<path d="M225.479 12.0462C227.039 4.01538 231.819 0 239.82 0C246.54 0 249.899 2.81635 249.899 8.44904C249.899 9.54582 249.77 10.7449 249.509 12.0462L247.978 19.9654H238.706L240.237 12.0462C240.646 9.96413 239.94 8.91378 238.121 8.89519H238.065C236.264 8.89519 235.16 9.94548 234.751 12.0462L233.805 17.0096C233.36 19.2776 235.179 22.1218 239.263 25.5423C243.644 29.1673 245.342 33.5173 244.358 38.5923L243.022 45.5077C241.463 53.557 236.682 57.5817 228.682 57.5817C221.962 57.5631 218.602 54.7375 218.602 49.1048C218.602 48.008 218.732 46.8089 218.992 45.5077L220.524 37.5885H229.796L228.264 45.5077C227.856 47.6084 228.57 48.6586 230.408 48.6586C232.227 48.6586 233.341 47.6084 233.749 45.5077L234.974 39.2615C235.438 36.7891 233.629 33.8426 229.545 30.4222C225.164 26.7971 223.475 22.382 224.477 17.1769L225.479 12.0462Z" fill="white"/>
<path d="M255.541 0.86438H277.371L275.644 9.75957H263.087L260.274 24.3153H271.078L269.324 33.2384H258.52L255.707 47.7942H268.266L266.54 56.6893H244.709L255.541 0.86438Z" fill="white"/>
</g>
<defs>
<clipPath id="clip0_333_4641">
<rect width="278" height="58" fill="white"/>
</clipPath>
</defs>
</svg>
